PathFileType	4	(X/Y/Z)	C:/Users/cmwille/Documents/OptiTrack/OpenSim_Lab5_04202021/group4_jump_1.trc
DataRate	CameraRate	NumFrames	NumMarkers	Units	OrigDataRate	OrigDataStartFrame	OrigNumFrames
200	200	6	39	m	200	0	994
Frame#	Time	L.ASIS			L.Acromium			L.Ankle.Lat			L.Ankle.Med			L.Heel			L.Knee.Lat			L.Knee.Med			L.Midfoot.Lat			L.Midfoot.Sup			L.Shank.Front			L.Shank.Rear			L.Shank.Upper			L.Thigh.Front			L.Thigh.Rear			L.Thigh.Upper			L.Toe.Lat			L.Toe.Med			L.Toe.Tip			R.ASIS			R.Acromium			R.Ankle.Lat			R.Ankle.Med			R.Heel			R.Knee.Lat			R.Knee.Med			R.Midfoot.Lat			R.Midfoot.Sup			R.Shank.Front			R.Shank.Rear			R.Shank.Upper			R.Thigh.Front			R.Thigh.Rear			R.Thigh.Upper			R.Toe.Lat			R.Toe.Med			R.Toe.Tip			Sternum			Top.Head			V.Sacral			
		X1	Y1	Z1	X2	Y2	Z2	X3	Y3	Z3	X4	Y4	Z4	X5	Y5	Z5	X6	Y6	Z6	X7	Y7	Z7	X8	Y8	Z8	X9	Y9	Z9	X10	Y10	Z10	X11	Y11	Z11	X12	Y12	Z12	X13	Y13	Z13	X14	Y14	Z14	X15	Y15	Z15	X16	Y16	Z16	X17	Y17	Z17	X18	Y18	Z18	X19	Y19	Z19	X20	Y20	Z20	X21	Y21	Z21	X22	Y22	Z22	X23	Y23	Z23	X24	Y24	Z24	X25	Y25	Z25	X26	Y26	Z26	X27	Y27	Z27	X28	Y28	Z28	X29	Y29	Z29	X30	Y30	Z30	X31	Y31	Z31	X32	Y32	Z32	X33	Y33	Z33	X34	Y34	Z34	X35	Y35	Z35	X36	Y36	Z36	X37	Y37	Z37	X38	Y38	Z38	X39	Y39	Z39
0	0	0.205562	1.03743	0.46664	0.0637969	1.5359	0.453764	0.0789316	0.117138	0.361892	0.0934249	0.123072	0.458954	0.00226154	0.0681676	0.414766	0.139515	0.531674	0.399129	0.158464	0.50631	0.522392	0.127615	0.0409931	0.335843	0.157947	0.0390067	0.467244	0.175578	0.446573	0.438148	0.142902	0.368402	0.38648	0.111525	0.480449	0.389111	0.140743	0.733504	0.379398	0.0268666	0.631868	0.456785	0.0226597	0.706181	0.463427	0.23916	0.0584597	0.336444	0.236932	0.0492582	0.466522	0.3073	0.0681622	0.404735	0.207646	1.06077	0.783563	0.189208	1.511	0.834682	0.0820475	0.126707	0.882153	0.1127	0.1243	0.774457	0.00717054	0.0665345	0.819243	0.164878	0.531224	0.842904	0.169032	0.528351	0.721564	0.125725	0.0401518	0.911919	0.166209	0.0424009	0.782537	0.186869	0.464683	0.795786	0.174185	0.376794	0.837083	0.138809	0.481848	0.854372	0.223302	0.753566	0.849072	0.0806178	0.659744	0.838614	0.0701125	0.734042	0.831586	0.210038	0.0385561	0.930703	0.241307	0.0455052	0.796006	0.310768	0.0709299	0.85826	0.288732	1.34335	0.583879	0.270333	1.81108	0.451654	0.0373964	1.07883	0.633537
1	0.005	0.205664	1.03744	0.466637	0.0638739	1.53586	0.453666	0.0789319	0.117132	0.361895	0.0937263	0.12302	0.459679	0.00224588	0.0681627	0.414765	0.13958	0.531718	0.39911	0.158431	0.506272	0.522381	0.12764	0.041015	0.335848	0.157945	0.0390154	0.467251	0.175606	0.446572	0.438152	0.142928	0.368412	0.386471	0.111557	0.480448	0.389098	0.140827	0.7335	0.379388	0.0269071	0.631881	0.456743	0.0225443	0.706447	0.463277	0.239166	0.0584728	0.336434	0.236931	0.0492606	0.466535	0.307294	0.0681592	0.404753	0.207663	1.06077	0.783565	0.189142	1.51101	0.834653	0.0820396	0.126691	0.882168	0.112721	0.12464	0.774495	0.0071761	0.0665275	0.819254	0.16479	0.531244	0.842894	0.169248	0.528255	0.721354	0.12572	0.0401396	0.911914	0.166211	0.0424061	0.78253	0.186805	0.464702	0.795785	0.174108	0.37681	0.83708	0.138717	0.481865	0.854363	0.223251	0.753563	0.849091	0.0805504	0.659776	0.838569	0.0700541	0.734078	0.83151	0.21004	0.038562	0.930707	0.241291	0.0454918	0.795998	0.310763	0.0709332	0.858254	0.288756	1.34337	0.583881	0.270319	1.81113	0.451649	0.0374532	1.07883	0.633482
2	0.01	0.205767	1.03744	0.466633	0.0639509	1.53581	0.453568	0.0789324	0.117127	0.361898	0.0940276	0.122967	0.460404	0.00223021	0.0681578	0.414763	0.139645	0.531762	0.39909	0.158399	0.506233	0.522369	0.127666	0.0410369	0.335853	0.157942	0.0390241	0.467259	0.175634	0.446571	0.438157	0.142955	0.368422	0.386462	0.111588	0.480448	0.389085	0.140911	0.733497	0.379378	0.0269475	0.631894	0.456702	0.0224288	0.706714	0.463127	0.239173	0.0584858	0.336423	0.23693	0.0492629	0.466547	0.307288	0.0681563	0.40477	0.20768	1.06077	0.783566	0.189076	1.51103	0.834622	0.0820317	0.126675	0.882183	0.112743	0.12498	0.774534	0.00718166	0.0665206	0.819264	0.164702	0.531263	0.842882	0.169465	0.52816	0.721145	0.125715	0.0401272	0.911909	0.166214	0.0424114	0.782522	0.186741	0.464721	0.795783	0.174031	0.376826	0.837078	0.138624	0.481882	0.854356	0.223201	0.75356	0.849109	0.0804831	0.659806	0.838523	0.0699958	0.734115	0.831433	0.210042	0.0385678	0.930712	0.241275	0.0454783	0.795989	0.310759	0.0709365	0.858249	0.28878	1.3434	0.583885	0.270305	1.81119	0.451643	0.0375101	1.07883	0.633427
3	0.015	0.205869	1.03745	0.46663	0.0640279	1.53577	0.453469	0.0789328	0.117121	0.361901	0.094329	0.122915	0.461131	0.00221455	0.0681529	0.414762	0.13971	0.531806	0.399071	0.158366	0.506195	0.522357	0.127691	0.0410588	0.335857	0.15794	0.0390328	0.467266	0.175662	0.446569	0.43816	0.142981	0.368432	0.386454	0.11162	0.480447	0.389072	0.140996	0.733492	0.379368	0.026988	0.631907	0.456661	0.0223134	0.70698	0.462977	0.23918	0.0584989	0.336413	0.236929	0.0492652	0.46656	0.307282	0.0681534	0.404789	0.207696	1.06077	0.783568	0.18901	1.51104	0.834593	0.0820236	0.126659	0.882198	0.112765	0.125321	0.774572	0.00718722	0.0665135	0.819274	0.164614	0.531283	0.842872	0.169682	0.528065	0.720935	0.12571	0.0401149	0.911905	0.166217	0.0424167	0.782515	0.186677	0.46474	0.795781	0.173955	0.376843	0.837075	0.138531	0.481899	0.854347	0.22315	0.753555	0.849126	0.0804157	0.659838	0.838479	0.0699374	0.73415	0.831356	0.210044	0.0385737	0.930716	0.241259	0.0454649	0.795981	0.310755	0.07094	0.858244	0.288803	1.34342	0.583889	0.27029	1.81124	0.451637	0.037567	1.07883	0.633372
4	0.02	0.205972	1.03745	0.466627	0.0641049	1.53573	0.45337	0.0789332	0.117116	0.361904	0.0946304	0.122862	0.461856	0.00219889	0.068148	0.414761	0.139775	0.531849	0.399052	0.158333	0.506156	0.522346	0.127717	0.0410806	0.335862	0.157938	0.0390415	0.467274	0.175691	0.446569	0.438164	0.143007	0.368442	0.386445	0.111652	0.480445	0.389059	0.14108	0.733487	0.379358	0.0270284	0.631919	0.456619	0.022198	0.707246	0.462828	0.239187	0.058512	0.336402	0.236928	0.0492676	0.466574	0.307276	0.0681505	0.404807	0.207713	1.06077	0.78357	0.188944	1.51105	0.834562	0.0820158	0.126642	0.882214	0.112786	0.125661	0.774611	0.00719278	0.0665066	0.819284	0.164526	0.531303	0.842861	0.169899	0.527969	0.720725	0.125705	0.0401026	0.9119	0.16622	0.0424219	0.782507	0.186613	0.46476	0.795778	0.173878	0.376859	0.837073	0.138438	0.481915	0.85434	0.2231	0.753552	0.849144	0.0803484	0.659869	0.838433	0.069879	0.734186	0.83128	0.210046	0.0385796	0.930719	0.241243	0.0454514	0.795973	0.310751	0.0709433	0.858238	0.288827	1.34344	0.583892	0.270276	1.8113	0.451632	0.0376239	1.07883	0.633318
5	0.025	0.206075	1.03746	0.466624	0.0641819	1.53569	0.453272	0.0789336	0.11711	0.361907	0.0949317	0.12281	0.462581	0.00218323	0.0681431	0.414759	0.13984	0.531893	0.399033	0.158301	0.506117	0.522334	0.127742	0.0411025	0.335866	0.157935	0.0390502	0.467282	0.175719	0.446568	0.438168	0.143034	0.368452	0.386436	0.111683	0.480445	0.389046	0.141164	0.733483	0.379348	0.0270689	0.631931	0.456578	0.0220826	0.707512	0.462677	0.239193	0.0585251	0.336392	0.236928	0.0492699	0.466586	0.30727	0.0681476	0.404825	0.20773	1.06077	0.783573	0.188877	1.51106	0.834533	0.0820078	0.126626	0.88223	0.112808	0.126001	0.77465	0.00719835	0.0664996	0.819295	0.164438	0.531322	0.842851	0.170116	0.527873	0.720515	0.1257	0.0400903	0.911895	0.166223	0.0424272	0.782499	0.186548	0.464779	0.795777	0.173801	0.376876	0.83707	0.138346	0.481933	0.854332	0.22305	0.75355	0.849162	0.0802809	0.6599	0.838389	0.0698206	0.734222	0.831203	0.210048	0.0385855	0.930722	0.241227	0.0454379	0.795964	0.310747	0.0709467	0.858232	0.288851	1.34347	0.583895	0.270262	1.81135	0.451627	0.0376807	1.07883	0.633263
